<?xml version="1.0" encoding="utf-8"?>
<!-- Generator: Adobe Illustrator 22.0.0, SVG Export Plug-In . SVG Version: 6.00 Build 0)  -->
<svg version="1.1" id="Layer_1" xmlns="http://www.w3.org/2000/svg" xmlns:xlink="http://www.w3.org/1999/xlink" x="0px" y="0px"
	 viewBox="0 0 512 472" style="enable-background:new 0 0 512 472;" xml:space="preserve">
<style type="text/css">
	.st0{fill:#F4C167;}
	.st1{fill:#363895;}
	.st2{fill:#FFFFFF;}
	.st3{fill:#A4ABEA;}
	.st4{fill:#F4A422;}
</style>
<g>
	<path class="st0" d="M159.2,417.5L134,462H82.5l35-61.8L159.2,417.5z M159.2,417.5"/>
	<path class="st0" d="M276.8,417.5L302,462h51.5l-35-61.8L276.8,417.5z M276.8,417.5"/>
	<path class="st1" d="M426,218c0,114.9-93.1,208-208,208S10,332.9,10,218S103.1,10,218,10S426,103.1,426,218L426,218z M426,218"/>
	<path class="st2" d="M362,218c0,79.5-64.5,144-144,144S74,297.5,74,218S138.5,74,218,74S362,138.5,362,218L362,218z M362,218"/>
	<path class="st3" d="M298,218c0,44.2-35.8,80-80,80c-44.2,0-80-35.8-80-80s35.8-80,80-80C262.2,138,298,173.8,298,218L298,218z
		 M298,218"/>
	<path class="st4" d="M403.9,176.1L362,218l41.9,41.9H502L460.1,218l41.9-41.9H403.9z M403.9,176.1"/>
	<g>
		<path d="M312.9,123.4c2,2,4.5,2.9,7.1,2.9c2.6,0,5.1-1,7.1-2.9c3.9-3.9,3.9-10.2,0-14.1l-0.1-0.1c-3.9-3.9-10.2-3.9-14.1,0
			c-3.9,3.9-3.9,10.2,0,14.1L312.9,123.4z M312.9,123.4"/>
		<path d="M474.2,218l34.9-34.9c2.9-2.9,3.7-7.2,2.2-10.9c-1.5-3.7-5.2-6.2-9.2-6.2h-72.3c-9.4-38.7-29.3-73.9-57.6-102.2
			C331,22.7,276.2,0,218,0S105,22.7,63.9,63.9C22.7,105,0,159.8,0,218s22.7,113,63.9,154.1c12.2,12.2,25.7,22.8,40.1,31.7
			l-30.1,53.2c-1.8,3.1-1.7,6.9,0.1,10c1.8,3.1,5.1,5,8.6,5H134c3.6,0,6.9-1.9,8.7-5.1l21.3-37.6c17.4,4.4,35.5,6.7,54,6.7
			s36.6-2.3,54-6.7l21.3,37.6c1.8,3.1,5.1,5.1,8.7,5.1h51.5c3.6,0,6.8-1.9,8.6-5c1.8-3.1,1.8-6.9,0.1-10l-30.1-53.2
			c14.4-8.9,27.8-19.5,40.1-31.7c28.3-28.3,48.2-63.6,57.6-102.2H502c4,0,7.7-2.4,9.2-6.2c1.5-3.7,0.7-8-2.2-10.9L474.2,218z
			 M455.9,208h-69.8l21.9-21.9h69.8L455.9,208z M128.2,452H99.7l21.8-38.5c7.5,3.7,15.1,7,23,9.8L128.2,452z M336.3,452h-28.5
			l-16.2-28.7c7.8-2.8,15.5-6.1,23-9.8L336.3,452z M358,358c-13.2,13.2-28,24.3-43.8,33.2c-0.2,0.1-0.4,0.2-0.6,0.3
			c-0.1,0.1-0.2,0.1-0.3,0.2c-12.2,6.7-25,12.1-38.3,16.1c-0.5,0.1-1,0.3-1.6,0.4c-17.8,5.1-36.3,7.8-55.3,7.8
			c-19,0-37.6-2.7-55.3-7.8c-0.5-0.2-1-0.3-1.6-0.4c-13.3-4-26.2-9.4-38.3-16.1c-0.1-0.1-0.2-0.1-0.3-0.2c-0.2-0.1-0.4-0.2-0.6-0.3
			c-15.9-8.9-30.6-20-43.8-33.2c-37.4-37.4-58-87.1-58-140S40.6,115.4,78,78c37.4-37.4,87.1-58,140-58s102.6,20.6,140,58
			c24.6,24.6,42.1,54.8,51.1,88.1h-5.2c-2.7,0-5.2,1.1-7.1,2.9l-26.5,26.5c-2.7-18.2-8.6-35.9-17.4-51.9c-2.7-4.8-8.8-6.6-13.6-3.9
			c-4.8,2.7-6.6,8.8-3.9,13.6c9.5,17.2,14.8,35.9,16.2,54.7h-44.1c-2.2-20.3-11.2-39-25.8-53.6c-17-17-39.6-26.4-63.6-26.4
			c-24,0-46.6,9.4-63.6,26.4c-17,17-26.4,39.6-26.4,63.6s9.4,46.6,26.4,63.6c17,17,39.6,26.4,63.6,26.4c24,0,46.6-9.4,63.6-26.4
			c14.6-14.6,23.6-33.4,25.8-53.6h44.1c-2.4,31.3-15.6,61.6-38.7,84.8c-25.3,25.3-59,39.2-94.8,39.2s-69.4-13.9-94.8-39.2
			C97.9,287.4,84,253.8,84,218s13.9-69.4,39.2-94.8c42-42,107.6-51.3,159.5-22.6c4.8,2.7,10.9,0.9,13.6-3.9
			c2.7-4.8,0.9-10.9-3.9-13.6c-28.6-15.8-62.4-22.1-95-17.7c-33.7,4.5-64.2,19.6-88.3,43.7C80,138.2,64,176.9,64,218
			c0,41.1,16,79.8,45.1,108.9C138.2,356,176.9,372,218,372s79.8-16,108.9-45.1c23.6-23.6,38.6-53.5,43.5-86.4l26.5,26.5
			c1.9,1.9,4.4,2.9,7.1,2.9h5.2C400.1,303.2,382.6,333.4,358,358L358,358z M250.7,199.1c-2.8-4.8-8.9-6.4-13.7-3.7l-24,13.9
			c-3.1,1.8-5,5.1-5,8.7c0,3.6,1.9,6.9,5,8.7l24,13.9c1.6,0.9,3.3,1.3,5,1.3c3.5,0,6.8-1.8,8.7-5c1.6-2.8,1.7-6.1,0.6-8.9h36.1
			c-2.1,14.9-9,28.7-19.8,39.5C254.3,280.7,236.7,288,218,288c-18.7,0-36.3-7.3-49.5-20.5C155.3,254.3,148,236.7,148,218
			c0-18.7,7.3-36.3,20.5-49.5c13.2-13.2,30.8-20.5,49.5-20.5c18.7,0,36.3,7.3,49.5,20.5c10.8,10.8,17.7,24.6,19.8,39.5h-36.1
			C252.4,205.2,252.3,202,250.7,199.1L250.7,199.1z M408.1,249.9L386.1,228h69.8l21.9,21.9H408.1z M408.1,249.9"/>
	</g>
</g>
</svg>
