<?xml version="1.0" encoding="utf-8"?>
<!-- Generator: Adobe Illustrator 22.0.0, SVG Export Plug-In . SVG Version: 6.00 Build 0)  -->
<svg version="1.1" id="Layer_1" xmlns="http://www.w3.org/2000/svg" xmlns:xlink="http://www.w3.org/1999/xlink" x="0px" y="0px"
	 viewBox="0 0 512 320" style="enable-background:new 0 0 512 320;" xml:space="preserve">
<style type="text/css">
	.st0{fill:#363895;}
	.st1{fill:#FCC69D;}
	.st2{fill:#F4C167;}
</style>
<g>
	<path d="M395.7,260.9c-7.2,6.2-16,9.2-24.5,8.8c-3.1,7.7-9.3,14.3-17.8,18.6c-8.8,4.4-18.4,5.7-26.8,3.9
		c-4.5,9.2-12.5,16.7-22.2,20.5c-8.2,3.2-16.8,3.2-24.3,0.3c-5.6,4.7-13.7,7.1-24.2,7.1c-13.1,0-30-7.3-37.9-12.4
		c-9.5-6.3-57.3-42.2-97-75.4c-6.6-5.6-16.4-15.8-26-25.8c-2.8-2.9-5.5-5.7-7.9-8.2c-3.7-3.9-6.9-7-8.9-8.7c-4.5-3.8-5-10.5-1.3-15
		c3.8-4.5,10.5-5.1,15-1.3c0.6,0.6,1.4,1.2,2.2,2c3.9,3.7,9.8,9.8,16.2,16.5c8.7,9.1,18.6,19.4,24.3,24.2c40.5,34,87.5,69,95,73.9
		c6.3,4.1,19,8.9,26.1,8.9c2.1,0,3.7-0.1,5.1-0.3c5.2-0.7,5.9-2.5,6.2-3.3c1.2-3.4,4-5.9,7.5-6.7c3.4-0.8,7.1,0.1,9.8,2.5
		c0.1,0.1,0.2,0.1,0.2,0.2c4.2,3.7,8.8,2.9,12,1.7c5.1-2,9.4-6.4,11.4-11.4c0.6-1.6,1-3.3,1.2-4.9c0.4-4,3-7.5,6.8-9
		c3.8-1.4,8.1-0.6,11.1,2.2c0.1,0.1,0.2,0.1,0.2,0.2c0,0,0,0,0,0c2.9,2.3,9.8,2.7,16.4-0.6c2.2-1.1,6.7-3.9,7.9-8.5
		c0.3-1.1,0.4-2.3,0.3-3.5c-0.4-4.1,1.6-8.2,5.1-10.3c3.6-2.1,8.1-2,11.5,0.4c0.1,0.1,0.3,0.2,0.4,0.3c0,0,0,0,0,0
		c3.2,1.8,8.7,0.6,12.7-2.9c2.9-2.5,7.1-7.8,3.2-16c-8-16.6-43.6-45.4-74.9-70.8c-17.3-14-33.8-27.3-46-38.8
		c-3.1,1.3-5.5,2.3-7.5,3.2c-5.6,2.5-9.2,4-16,5.1c-16.4,21.8-38.5,29.4-62.7,21.5c-9.6-3.2-16.1-10-18.3-19.2
		c-5.1-21.6,14.5-50.9,29.1-65.6l0.2-0.2c8.2-8.2,15.8-15.3,23.3-21.1c27.5-21.7,52.3-27,90.8-9.8C325.5,43,348,51.9,364.1,58
		c14,5.3,23.2,8.5,23.4,8.6c5.6,1.9,8.5,8,6.6,13.6c-1.9,5.6-8,8.5-13.6,6.6c-0.1,0-1.3-0.5-3.5-1.3c-11.1-4-46.9-17.1-82.7-33.1
		c-37.8-16.9-55.6-8.2-90.3,26.5c-14.6,14.6-25.8,36.4-23.6,45.7c0.3,1.4,0.9,2.8,4.2,3.9c10.4,3.5,26,5.4,41.1-17.1
		c1.8-2.6,4.6-4.4,7.8-4.7c7.2-0.7,9-1.5,14.3-3.9c3.5-1.6,7.9-3.6,15.1-6.2c3.9-1.4,8.2-0.5,11.2,2.5c11.7,11.7,30,26.5,49.3,42.1
		c29.4,23.8,59.6,48.2,74.3,67.9c2.7,3.6,4.9,7,6.4,10.3c1.4,3,2.5,6,3,9.1v0C409.6,240.5,405.5,252.5,395.7,260.9z"/>
	<path d="M224,53.3c0,5.9-4.8,10.7-10.7,10.7h-96c-5.9,0-10.7-4.8-10.7-10.7s4.8-10.7,10.7-10.7h96C219.2,42.7,224,47.4,224,53.3z"
		/>
	<path d="M432.6,211.5l-8.4,5.7l-16.9,11.3v0l-5.9,3.9c-1.8,1.2-3.9,1.8-5.9,1.8c-3.4,0-6.8-1.7-8.9-4.7c-3.3-4.9-2-11.5,2.9-14.8
		l8.3-5.6l19.5-13.1l3.4-2.3c4.9-3.3,11.5-2,14.8,2.9C438.8,201.6,437.5,208.2,432.6,211.5z"/>
	<path d="M371.1,262.6c-2.1,2.7-5.3,4.1-8.4,4.1c-2.3,0-4.7-0.8-6.6-2.3c-1.1-0.9-2.5-2.1-4.3-3.7c-16-14.6-55.9-56.1-60.8-61.3
		c-4.1-4.3-4-11,0.3-15.1c4.2-4.1,11-4,15.1,0.3c21,21.9,54.8,56.5,62.8,62.9c0,0,0,0,0,0c0,0,0.1,0.1,0.1,0.1
		C373.9,251.3,374.7,258,371.1,262.6z"/>
	<path d="M328.3,284c-2.1,2.6-5.2,4-8.3,4c-2.3,0-4.7-0.8-6.7-2.3c-1.5-1.2-3.3-2.7-5.2-4.4c-17.7-15.9-49-49.7-49.4-50
		c-4-4.3-3.7-11.1,0.6-15.1c4.4-4,11.1-3.7,15.1,0.6c7.3,7.9,39.4,42,52.1,52.2c0.3,0.2,0.6,0.5,0.8,0.8c0,0,0,0,0,0
		C331.3,273.6,331.8,279.7,328.3,284z"/>
	<path d="M285.5,305.5c-2.1,2.5-5.1,3.8-8.2,3.8c-2.4,0-4.9-0.8-6.9-2.5c-2.8-2.3-5.9-5.2-9.4-8.4c-16.1-15.2-37.7-38-44.9-45.8
		c-4-4.3-3.8-11.1,0.5-15.1c4.3-4,11-3.8,15.1,0.5c6.1,6.5,37.2,39.6,52.4,52.5c0.2,0.2,0.4,0.3,0.5,0.5
		C288.8,294.8,289.1,301.2,285.5,305.5z"/>
	<path d="M124.7,24.2C106.4,6.9,33.3,1.3,11.3,0c-3-0.2-5.8,0.8-8,2.9C1.2,4.9,0,7.7,0,10.7v192c0,5.9,4.8,10.7,10.7,10.7h64
		c4.6,0,8.7-3,10.1-7.4c0.2-0.7,1.1-3.4,2.5-7.8c1.7-5.4,4.2-13.4,7.1-23c8.9-29.4,21.8-74.5,28.9-111.2c1.5-7.5,2.7-14.7,3.5-21.3
		c0.5-3.4,0.8-6.7,1.1-9.8C128.2,29.7,127,26.5,124.7,24.2z M66.9,192H21.3V22.1c34.3,2.7,71.3,8.6,84.7,15.1
		C100.4,83.9,74.8,166.9,66.9,192z"/>
	<path class="st0" d="M106,37.2C100.4,83.9,74.8,166.9,66.9,192H21.3V22.1C55.6,24.8,92.6,30.7,106,37.2z"/>
	<path class="st1" d="M381.9,244.6c-4,3.5-9.5,4.7-12.7,2.9c0,0,0,0,0,0c-7.9-6.3-41.8-41-62.8-62.9c-4.1-4.3-10.8-4.4-15.1-0.3
		c-4.3,4.1-4.4,10.8-0.3,15.1c5,5.2,44.8,46.7,60.8,61.3c-1.2,4.6-5.7,7.4-7.9,8.5c-6.6,3.3-13.5,2.9-16.4,0.6c0,0,0,0,0,0
		c-0.3-0.3-0.5-0.5-0.8-0.8c-12.8-10.2-44.9-44.3-52.1-52.2c-4-4.4-10.7-4.6-15.1-0.6c-4.3,4-4.6,10.8-0.6,15.1
		c0.3,0.4,31.6,34.2,49.4,50c-2,5.1-6.3,9.4-11.4,11.4c-3.2,1.2-7.8,2-12-1.7c-0.2-0.2-0.4-0.3-0.5-0.5
		c-15.2-12.8-46.3-46-52.4-52.5c-4-4.3-10.8-4.5-15.1-0.5c-4.3,4-4.5,10.8-0.5,15.1c7.2,7.7,28.8,30.6,44.9,45.8
		c-1.4,0.2-3,0.3-5.1,0.3c-7.1,0-19.9-4.8-26.1-8.9c-7.5-4.9-54.5-40-95-73.9c-5.7-4.8-15.5-15.1-24.3-24.2
		c-6.3-6.6-12.3-12.8-16.2-16.5c8.9-29.4,21.8-74.5,28.9-111.2h65.4c-14.6,14.7-34.2,44-29.1,65.6c2.2,9.2,8.7,16,18.3,19.2
		c24.2,8,46.2,0.3,62.7-21.5c6.8-1,10.5-2.6,16-5.1c2-0.9,4.3-1.9,7.5-3.2c12.2,11.5,28.7,24.8,46,38.8
		c31.4,25.4,66.9,54.1,74.9,70.8C389,236.8,384.8,242.2,381.9,244.6z"/>
	<path d="M501.3,21.3c-83.8,0-130.2,21.4-132.2,22.3c-2.8,1.3-4.8,3.7-5.7,6.6c-0.8,2.6-0.5,5.3,0.6,7.7c0.2,0.3,0.3,0.7,0.5,1
		c2.9,4.7,7.3,14.2,12.3,26.5c12.5,30.4,29.4,77.8,40.4,110.6c2.7,8.1,5,15.3,6.8,21.1c1.2,3.8,2.2,7.1,2.9,9.7
		c1.3,4.6,5.5,7.8,10.3,7.8h64c5.9,0,10.7-4.8,10.7-10.7V32C512,26.1,507.2,21.3,501.3,21.3z M490.7,213.3h-45.4
		c-10.1-32.9-40-118.8-56.6-154.3c16.3-5.5,51.2-15,102-16.2V213.3z"/>
	<path class="st2" d="M490.7,42.8v170.5h-45.4c-10.1-32.9-40-118.8-56.6-154.3C405,53.5,439.9,44,490.7,42.8z"/>
	<path class="st1" d="M417.3,196.1l-19.5,13.1c-14.7-19.7-45-44.1-74.3-67.9c-19.4-15.7-37.7-30.5-49.3-42.1
		c-2.9-3-7.3-3.9-11.2-2.5c-7.2,2.6-11.6,4.6-15.1,6.2c-5.3,2.4-7.1,3.2-14.3,3.9c-3.2,0.3-6,2-7.8,4.7
		c-15.1,22.5-30.7,20.6-41.1,17.1c-3.3-1.1-3.9-2.5-4.2-3.9c-2.2-9.4,9-31.2,23.6-45.7c34.7-34.7,52.5-43.4,90.3-26.5
		c35.7,16,71.5,29.1,82.7,33.1C389.5,115.9,406.4,163.2,417.3,196.1z"/>
</g>
</svg>
