<?xml version="1.0" encoding="utf-8"?>
<!-- Generator: Adobe Illustrator 22.0.0, SVG Export Plug-In . SVG Version: 6.00 Build 0)  -->
<svg version="1.1" id="Layer_1" xmlns="http://www.w3.org/2000/svg" xmlns:xlink="http://www.w3.org/1999/xlink" x="0px" y="0px"
	 viewBox="0 0 482.6 493" style="enable-background:new 0 0 482.6 493;" xml:space="preserve">
<style type="text/css">
	.st0{fill:#A4ABEA;}
	.st1{fill:#F4C167;}
	.st2{fill:#363895;}
	.st3{fill:#F4A422;}
	.st4{fill:#FCC69D;}
</style>
<g>
	<path class="st0" d="M203,275.7l-79.9,32l32,96.7l79.9-32.8L203,275.7z M203,275.7L203,275.7z"/>
	<path class="st1" d="M402.7,35.9v8c0,26.4-21.6,47.9-47.9,47.9c26.4,0,47.9,21.6,47.9,47.9v8v-8c0-26.4,21.6-47.9,47.9-47.9
		c-26.4,0-47.9-21.6-47.9-47.9V35.9z M402.7,35.9L402.7,35.9z"/>
	<path class="st1" d="M51.1,195.8v8c0,26.4-21.6,47.9-47.9,47.9c26.4,0,47.9,21.6,47.9,47.9v8v-8c0-26.4,21.6-47.9,47.9-47.9
		c-26.4,0-47.9-21.6-47.9-47.9V195.8z M51.1,195.8L51.1,195.8z"/>
	<path class="st1" d="M434.7,195.8v8c0,26.4-21.6,47.9-47.9,47.9c26.4,0,47.9,21.6,47.9,47.9v8v-8c0-26.4,21.6-47.9,47.9-47.9
		c-26.4,0-47.9-21.6-47.9-47.9V195.8z M434.7,195.8L434.7,195.8z"/>
	<path class="st2" d="M155,404.3L3.2,467.4V355.6l119.9-47.9L155,404.3z M155,404.3L155,404.3z"/>
	<path d="M398.7,421.9c-4.8-10.4-13.6-16-23.2-16h-26.4l-14.4-34.4L370,354c11.2-5.6,16-18.4,12-29.6l-45.5-122.2
		c-4.8-12.8-18.4-18.4-31.2-14.4c0,0-0.8,0-0.8,0.8l-33.6,14.4l-4-11.2l18.4-21.6c12.8-14.4,20.8-32,23.2-51.1l23.2-28
		c15.2-17.6,12-44-5.6-59.1c-3.2-2.4-6.4-4.8-9.6-6.4c-8.8-4-17.6-4.8-27.2-2.4l-2.4-7.2c-4-12.8-18.4-19.2-30.4-14.4L87.9,62.3
		c-12.8,4.8-19.2,18.4-14.4,30.4v0.8l4,10.4c-20.8,9.6-30.4,33.6-23.2,54.3c5.6,16,20,27.2,36.8,29.6l37.6,4
		c15.2,11.2,33.6,18.4,51.9,20l26.4,2.4l4.8,12c-5.6,3.2-9.6,8.8-11.2,16l-5.6,27.2L0,348.4l3.2,8.7l2.4,6.5l111.9-44.8l27.2,81.5
		L3.2,458.9L0,460.2l3.2,7.2l3.2,7.2l229.3-95.1l40,4.8l14.4,44l-19.2,18.4c-7.2,6.4-9.6,16.8-5.6,26.4l8,20l132.6-51.9L398.7,421.9
		z M310,39.9c12.8,5.6,19.2,20.8,13.6,34.4c-0.8,2.4-2.4,4-4,6.4l-9.6,12c-0.8-8-2.4-15.2-4.8-23.2l-10.4-31.2
		C300.5,37.5,305.2,38.3,310,39.9z M94.3,172.6c-11.2-0.8-20.8-8-24-18.4c-4.8-13.6,0.8-28,13.6-34.4L95.1,147
		c4,9.6,9.6,19.2,16,27.2L94.3,172.6z M183.8,196.6c-32.8-3.2-61.5-24-73.5-55.1L89.5,88.7c-1.6-4,0-8.8,4-10.4l168.6-60.7
		c2.4-0.8,4-0.8,6.4,0c1.6,0.8,3.2,2.4,4,4.8l17.6,52.7c9.6,29.6,3.2,61.5-16.8,84.7l-24.8,28.8l7.2,19.2l-28.8,12l-8-20
		L183.8,196.6z M159.8,393.9l-27.2-81.5l18.4-7.2l20,60.7l15.2-4.8l-20.8-62.3l32-12.8l27.2,80.7L159.8,393.9z M240.5,363.6
		L211,274.9l5.6-29.6c0.8-2.4,2.4-4.8,4.8-5.6l89.5-38.3c4-1.6,8.8,0,10.4,4l6.4,16.8l-39.2,12.8l4.8,15.2l39.2-12.8l9.6,25.6
		l-37.6,12.8l4.8,15.2l38.4-12.8l9.6,25.6l-36.8,12l4.8,15.2l37.5-12.8l4,10.4c1.6,4,0,8-4,9.6l-63.1,31.2c-1.6,0.8-3.2,0.8-4.8,0.8
		L240.5,363.6z M332.4,407.5l-28.8,9.6l-10.4-30.4c4.8,0.8,8.8,0,12.8-2.4l13.6-6.4L332.4,407.5z M282.1,472.2l-2.4-4.8
		c-0.8-3.2,0-6.4,1.6-8.8l27.2-25.6l34.4-11.2h32c3.2,0,6.4,2.4,7.2,4.8l1.6,4.8L282.1,472.2z"/>
	<path class="st3" d="M383.5,431.5l-101.5,40.8l-2.4-4.8c-0.8-3.2,0-6.4,1.6-8.8l27.2-25.6l34.4-11.2h32c3.2,0,6.4,2.4,7.2,4.8
		L383.5,431.5z"/>
	<path class="st3" d="M332.4,407.5l-28.8,9.6l-10.4-30.4c4.8,0.8,8.8,0,12.8-2.4l13.6-6.4L332.4,407.5z"/>
	<path class="st4" d="M362.8,338l-63.1,31.2c-1.6,0.8-3.2,0.8-4.8,0.8l-54.3-6.4L211,274.9l5.6-29.6c0.8-2.4,2.4-4.8,4.8-5.6
		l89.5-38.3c4-1.6,8.8,0,10.4,4l6.4,16.8l-39.2,12.8l4.8,15.2l39.2-12.8l9.6,25.6l-37.6,12.8l4.8,15.2l38.4-12.8l9.6,25.6l-36.8,12
		l4.8,15.2l37.5-12.8l4,10.4C368.4,332.4,366.8,336.4,362.8,338z"/>
	<path class="st3" d="M290.1,75.1l-17.6-52.7c-0.8-2.4-2.4-4-4-4.8c-2.4-0.8-4-0.8-6.4,0L93.5,78.3c-4,1.6-5.6,6.4-4,10.4l20.8,52.7
		c12,31.2,40.8,51.9,73.5,55.1l35.1,3.2l8,20l28.8-12l-7.2-19.2l24.8-28.8C293.3,136.6,299.7,104.7,290.1,75.1z M248.5,153.4
		l-11.2-11.2c35.2-35.2-0.8-93.5-1.6-93.5l13.6-8.8C251.7,42.3,292.5,109.5,248.5,153.4z"/>
	<path d="M394.7,139.8v8h16v-8c0-22.4,17.6-40,39.9-40v-16c-22.4,0-39.9-17.6-39.9-40v-8h-16v8c0,22.4-17.6,40-40,40v16
		C377.2,99.9,394.7,117.5,394.7,139.8L394.7,139.8z M402.7,72.7c4.8,8,11.2,14.4,19.2,19.2c-8,4.8-14.4,11.2-19.2,19.2
		c-4.8-8-11.2-14.4-19.2-19.2C391.5,87.1,397.9,80.7,402.7,72.7L402.7,72.7z M402.7,72.7L402.7,72.7z"/>
	<path d="M43.2,299.6v8h16v-8c0-22.4,17.6-40,40-40v-16c-22.4,0-40-17.6-40-40v-8h-16v8c0,22.4-17.6,40-40,40v16
		C25.6,259.7,43.2,277.3,43.2,299.6L43.2,299.6z M51.1,232.5c4.8,8,11.2,14.4,19.2,19.2c-8,4.8-14.4,11.2-19.2,19.2
		c-4.8-8-11.2-14.4-19.2-19.2C40,246.9,46.3,240.5,51.1,232.5L51.1,232.5z M51.1,232.5L51.1,232.5z"/>
	<path d="M442.7,203.7v-8h-16v8c0,22.4-17.6,40-40,40v16c22.4,0,40,17.6,40,40v8h16v-8c0-22.4,17.6-40,39.9-40v-16
		C460.3,243.7,442.7,226.1,442.7,203.7L442.7,203.7z M434.7,270.9c-4.8-8-11.2-14.4-19.2-19.2c8-4.8,14.4-11.2,19.2-19.2
		c4.8,8,11.2,14.4,19.2,19.2C445.9,256.5,439.5,262.9,434.7,270.9L434.7,270.9z M434.7,270.9L434.7,270.9z"/>
	<path d="M249.3,39.9l-13.6,8.8c0.8,0,36.8,58.3,1.6,93.5l11.2,11.2C292.5,109.5,251.7,42.3,249.3,39.9z"/>
</g>
</svg>
